<?xml version="1.0" standalone="no"?>
<!DOCTYPE svg PUBLIC "-//W3C//DTD SVG 20010904//EN"
 "http://www.w3.org/TR/2001/REC-SVG-20010904/DTD/svg10.dtd">
<svg version="1.0" xmlns="http://www.w3.org/2000/svg"
 width="1024.000000pt" height="1024.000000pt" viewBox="0 0 1024.000000 1024.000000"
 preserveAspectRatio="xMidYMid meet">
<metadata>
Created by potrace 1.14, written by Peter Selinger 2001-2017
</metadata>
<g transform="translate(0.000000,1024.000000) scale(0.100000,-0.100000)"
fill="#000000" stroke="none">
<path d="M5077 10164 c-1 -1 -78 -5 -172 -8 -93 -4 -188 -9 -210 -11 -22 -2
-65 -6 -96 -9 -55 -6 -103 -12 -164 -21 -16 -3 -54 -8 -84 -11 -45 -5 -391
-74 -441 -88 -8 -2 -44 -11 -80 -21 -182 -46 -484 -149 -680 -232 -89 -38
-392 -184 -440 -213 -8 -5 -70 -41 -138 -80 -150 -87 -371 -235 -512 -343 -58
-44 -107 -83 -110 -87 -3 -3 -18 -16 -35 -29 -150 -115 -448 -407 -605 -591
-30 -36 -57 -67 -61 -70 -36 -31 -258 -333 -361 -490 -270 -413 -522 -979
-634 -1420 -2 -8 -11 -42 -19 -75 -8 -33 -22 -91 -31 -130 -8 -38 -17 -79 -20
-90 -2 -11 -7 -36 -10 -55 -3 -19 -8 -38 -9 -41 -2 -3 -7 -28 -10 -55 -3 -27
-10 -71 -15 -99 -11 -61 -17 -102 -25 -180 -4 -33 -8 -71 -10 -84 -27 -162
-27 -852 -1 -1011 3 -14 7 -50 10 -80 8 -89 35 -267 57 -375 11 -55 22 -111
25 -125 34 -184 164 -601 254 -820 105 -253 230 -504 327 -657 18 -29 33 -55
33 -58 0 -11 202 -309 278 -410 284 -377 594 -689 987 -993 208 -161 540 -366
812 -501 100 -50 184 -91 187 -91 3 0 29 -11 58 -24 147 -66 316 -127 590
-212 49 -15 264 -69 308 -78 14 -2 61 -12 105 -21 104 -21 113 -23 159 -30 21
-3 48 -7 60 -10 12 -2 48 -7 81 -10 32 -4 62 -8 65 -10 3 -1 45 -6 94 -10 50
-4 98 -8 107 -10 72 -14 459 -20 674 -10 136 6 179 10 395 35 593 70 1305 308
1841 616 162 93 511 322 539 354 3 3 25 21 50 40 25 19 52 40 60 47 8 7 62 52
120 100 640 535 1159 1271 1459 2072 106 283 206 647 246 896 21 136 36 238
41 290 3 33 7 71 10 85 26 156 25 852 -1 1000 -2 14 -6 50 -9 80 -5 56 -8 80
-27 205 -12 73 -15 94 -24 135 -2 14 -7 39 -10 57 -10 64 -65 299 -86 368
-158 528 -317 893 -567 1300 -48 78 -191 291 -214 320 -5 6 -34 44 -65 85
-224 295 -510 595 -773 811 -36 30 -70 58 -76 64 -72 63 -253 195 -418 303
-564 368 -1195 618 -1866 738 -14 2 -36 7 -50 9 -14 3 -41 7 -60 10 -19 2 -69
9 -110 14 -41 6 -106 13 -145 16 -38 4 -81 8 -95 11 -14 2 -101 6 -195 10
-235 8 -266 9 -268 8z"/>
</g>
</svg>
